<?xml version="1.0" encoding="UTF-8"?>
<svg id="Camada_1" data-name="Camada 1" xmlns="http://www.w3.org/2000/svg" xmlns:xlink="http://www.w3.org/1999/xlink" viewBox="0 0 262.55 258.49">
  <defs>
    <style>
      .cls-1 {
        stroke-linecap: round;
        stroke-linejoin: round;
        stroke-width: 7px;
      }

      .cls-1, .cls-2, .cls-3 {
        fill: none;
        stroke: #fff;
      }

      .cls-2 {
        stroke-width: 3px;
      }

      .cls-2, .cls-3 {
        stroke-miterlimit: 10;
      }

      .cls-4 {
        fill: url(#linear-gradient);
      }

      .cls-3 {
        stroke-width: .25px;
      }
    </style>
    <linearGradient id="linear-gradient" x1="82.33" y1="129.41" x2="181.07" y2="129.41" gradientUnits="userSpaceOnUse">
      <stop offset="0" stop-color="#009249"/>
      <stop offset="1" stop-color="#028d6b"/>
    </linearGradient>
  </defs>
  <g>
    <g>
      <g>
        <path class="cls-4" d="M181.07,129.41c0,27.28-22.1,49.38-49.37,49.38s-49.37-22.11-49.37-49.38,22.1-49.37,49.37-49.37,49.37,22.1,49.37,49.37Z"/>
        <path class="cls-2" d="M192.76,129.24c0,33.34-27.01,60.36-60.35,60.36s-60.35-27.02-60.35-60.36,27.02-60.35,60.35-60.35,60.35,27.02,60.35,60.35Z"/>
        <g>
          <line class="cls-3" x1="130.27" y1="68.89" x2="130.27" y2="79.81"/>
          <line class="cls-3" x1="130.27" y1="178.67" x2="130.27" y2="189.6"/>
        </g>
        <line class="cls-3" x1="130.27" y1="178.67" x2="130.27" y2="189.6"/>
        <g>
          <line class="cls-3" x1="193.14" y1="129.24" x2="183.46" y2="129.24"/>
          <line class="cls-3" x1="84.6" y1="129.24" x2="73.68" y2="129.24"/>
        </g>
        <g>
          <line class="cls-3" x1="192.76" y1="129.24" x2="183.46" y2="129.24"/>
          <line class="cls-3" x1="84.6" y1="129.24" x2="73.68" y2="129.24"/>
        </g>
        <g>
          <line class="cls-3" x1="176.7" y1="86.56" x2="169" y2="94.29"/>
          <line class="cls-3" x1="99.08" y1="164.2" x2="91.36" y2="171.92"/>
        </g>
        <g>
          <line class="cls-3" x1="176.7" y1="86.56" x2="169" y2="94.29"/>
          <line class="cls-3" x1="99.08" y1="164.2" x2="91.36" y2="171.92"/>
        </g>
        <g>
          <line class="cls-3" x1="176.7" y1="171.92" x2="169" y2="164.2"/>
          <line class="cls-3" x1="99.08" y1="94.29" x2="91.36" y2="86.56"/>
        </g>
        <g>
          <line class="cls-3" x1="176.7" y1="171.92" x2="169" y2="164.2"/>
          <line class="cls-3" x1="99.08" y1="94.29" x2="91.36" y2="86.56"/>
        </g>
        <g>
          <line class="cls-3" x1="164.33" y1="77.05" x2="158.85" y2="86.49"/>
          <line class="cls-3" x1="109.22" y1="172" x2="103.73" y2="181.45"/>
        </g>
        <g>
          <line class="cls-3" x1="164.33" y1="77.05" x2="158.85" y2="86.49"/>
          <line class="cls-3" x1="109.22" y1="172" x2="103.73" y2="181.45"/>
        </g>
        <g>
          <line class="cls-3" x1="186.23" y1="159.54" x2="176.8" y2="154.06"/>
          <line class="cls-3" x1="91.28" y1="104.43" x2="81.85" y2="98.94"/>
        </g>
        <g>
          <line class="cls-3" x1="186.23" y1="159.54" x2="176.8" y2="154.06"/>
          <line class="cls-3" x1="91.28" y1="104.43" x2="81.85" y2="98.94"/>
        </g>
        <g>
          <line class="cls-3" x1="190.75" y1="113.76" x2="180.19" y2="116.56"/>
          <line class="cls-3" x1="84.64" y1="141.92" x2="74.08" y2="144.73"/>
        </g>
        <g>
          <line class="cls-3" x1="190.75" y1="113.76" x2="180.19" y2="116.56"/>
          <line class="cls-3" x1="84.64" y1="141.92" x2="74.08" y2="144.73"/>
        </g>
        <g>
          <line class="cls-3" x1="145.74" y1="187.57" x2="142.94" y2="177.03"/>
          <line class="cls-3" x1="117.57" y1="81.46" x2="114.77" y2="70.92"/>
        </g>
        <g>
          <line class="cls-3" x1="145.74" y1="187.57" x2="142.94" y2="177.03"/>
          <line class="cls-3" x1="117.57" y1="81.46" x2="114.77" y2="70.92"/>
        </g>
        <g>
          <line class="cls-3" x1="150.78" y1="71.26" x2="147.74" y2="81.75"/>
          <line class="cls-3" x1="120.32" y1="176.73" x2="117.3" y2="187.22"/>
        </g>
        <g>
          <line class="cls-3" x1="150.78" y1="71.26" x2="147.74" y2="81.75"/>
          <line class="cls-3" x1="120.32" y1="176.73" x2="117.3" y2="187.22"/>
        </g>
        <g>
          <line class="cls-3" x1="191.29" y1="145.98" x2="181.53" y2="142.95"/>
          <line class="cls-3" x1="86.54" y1="115.53" x2="76.05" y2="112.5"/>
        </g>
        <g>
          <line class="cls-3" x1="191.29" y1="145.98" x2="181.53" y2="142.95"/>
          <line class="cls-3" x1="86.54" y1="115.53" x2="76.05" y2="112.5"/>
        </g>
        <g>
          <line class="cls-3" x1="185.26" y1="100.07" x2="175.7" y2="105.35"/>
          <line class="cls-3" x1="89.13" y1="153.13" x2="79.58" y2="158.41"/>
        </g>
        <g>
          <line class="cls-3" x1="185.26" y1="100.07" x2="175.7" y2="105.35"/>
          <line class="cls-3" x1="89.13" y1="153.13" x2="79.58" y2="158.41"/>
        </g>
        <g>
          <line class="cls-3" x1="163.2" y1="182.07" x2="157.92" y2="172.52"/>
          <line class="cls-3" x1="110.14" y1="85.96" x2="104.88" y2="76.41"/>
        </g>
        <g>
          <line class="cls-3" x1="163.2" y1="182.07" x2="157.92" y2="172.52"/>
          <line class="cls-3" x1="110.14" y1="85.96" x2="104.88" y2="76.41"/>
        </g>
        <g>
          <path class="cls-3" d="M89.71,131.37c0-23.58,19.12-42.7,42.7-42.7"/>
          <path class="cls-3" d="M138.84,88.69s7.97.24,15.57,5.6"/>
        </g>
      </g>
      <g>
        <line class="cls-3" x1="114.39" y1="98.08" x2="107.63" y2="91.33"/>
        <line class="cls-3" x1="114.39" y1="98.08" x2="107.63" y2="91.33"/>
        <line class="cls-3" x1="123.94" y1="85.55" x2="115.49" y2="81.11"/>
        <line class="cls-3" x1="124.22" y1="85.84" x2="115.49" y2="81.11"/>
        <line class="cls-3" x1="84.21" y1="114.88" x2="81.38" y2="104.25"/>
        <line class="cls-3" x1="84.21" y1="114.88" x2="81.38" y2="104.25"/>
        <line class="cls-3" x1="129.35" y1="72.97" x2="120.27" y2="69.93"/>
        <line class="cls-3" x1="129.35" y1="72.97" x2="120.27" y2="69.93"/>
        <line class="cls-3" x1="101.81" y1="109.35" x2="96.5" y2="99.71"/>
        <line class="cls-3" x1="101.81" y1="109.35" x2="96.5" y2="99.71"/>
      </g>
    </g>
    <image width="1828" height="1828" transform="translate(72.77 69.6) scale(.07)" xlink:href="F:\BACKUP2025\documentos\SINTROP\TOKEN 2024\token3.png"/>
  </g>
  <g>
    <path class="cls-1" d="M129.79,3.55C61.61,4.98,6.78,60.74,6.78,129.25s54.84,124.27,123.01,125.69c.05,0,2.73.05,2.73.05v-43.74h-2.79c-44.01-.05-79.22-37.67-79.22-82.01s35.1-82.01,79-82.01h3.01V3.5s-1.53,0-2.73.05Z"/>
    <line class="cls-1" x1="129.79" y1="211.25" x2="129.79" y2="211.25"/>
    <path class="cls-1" d="M157.72,50.57s.43.13.64.2c7.7,2.45,14.9,6.09,21.4,10.71,3.52,2.5,6.84,5.3,9.93,8.34.15.15.45.45.45.45l30.07-31.14s-.2-.19-.29-.29c-4.72-4.57-9.8-8.77-15.2-12.55-9.92-6.97-20.88-12.53-32.62-16.42-.21-.07-.62-.2-.62-.2l-13.77,40.9Z"/>
    <path class="cls-1" d="M207.41,162.96s-.2.45-.3.67c-9.48,20.96-27.32,37.38-49.2,44.2-.35.11-1.04.32-1.04.32l12.21,41.44s1.18-.36,1.76-.55c34.19-10.92,62.03-36.1,76.53-68.52.08-.19.25-.56.25-.56l-40.21-16.99Z"/>
    <path class="cls-1" d="M204.79,90.12s.1.18.15.28c6.13,11.66,9.6,24.93,9.6,38.85,0,3.44-.21,6.84-.62,10.18-.03.26-.1.78-.1.78l43.36,5.72s.07-.57.11-.86c.65-5.19.99-10.47.99-15.83,0-21.7-5.5-42.12-15.19-59.94-.04-.07-.11-.21-.11-.21l-38.18,21.03Z"/>
    <line class="cls-1" x1="191.98" y1="238.13" x2="173.3" y2="203.28"/>
    <line class="cls-1" x1="213.85" y1="224.01" x2="188.11" y2="193.49"/>
    <line class="cls-1" x1="231.16" y1="204.19" x2="199.27" y2="180.05"/>
  </g>
</svg>